<?xml version="1.0" encoding="UTF-8" standalone="no" ?>
<!DOCTYPE svg PUBLIC "-//W3C//DTD SVG 1.1//EN" "http://www.w3.org/Graphics/SVG/1.1/DTD/svg11.dtd">
<svg xmlns="http://www.w3.org/2000/svg" xmlns:xlink="http://www.w3.org/1999/xlink" version="1.1" width="640" height="480" viewBox="0 0 640 480" xml:space="preserve">
<desc>Created with Fabric.js 3.6.3</desc>
<defs>
</defs>
<g transform="matrix(1 0 0 1 256.5 224.5)"  >
<path style="stroke: none; stroke-width: 1; stroke-dasharray: none; stroke-linecap: butt; stroke-dashoffset: 0; stroke-linejoin: miter; stroke-miterlimit: 4; fill: rgb(0,0,0); fill-rule: nonzero; opacity: 1;"  transform=" translate(-256, -256)" d="M 96 480 h 64 C 177.7 480 192 465.7 192 448 S 177.7 416 160 416 H 96 c -17.67 0 -32 -14.33 -32 -32 V 128 c 0 -17.67 14.33 -32 32 -32 h 64 C 177.7 96 192 81.67 192 64 S 177.7 32 160 32 H 96 C 42.98 32 0 74.98 0 128 v 256 C 0 437 42.98 480 96 480 z M 504.8 238.5 l -144.1 -136 c -6.975 -6.578 -17.2 -8.375 -26 -4.594 c -8.803 3.797 -14.51 12.47 -14.51 22.05 l -0.0918 72 l -128 -0.001 c -17.69 0 -32.02 14.33 -32.02 32 v 64 c 0 17.67 14.34 32 32.02 32 l 128 0.001 l 0.0918 71.1 c 0 9.578 5.707 18.25 14.51 22.05 c 8.803 3.781 19.03 1.984 26 -4.594 l 144.1 -136 C 514.4 264.4 514.4 247.6 504.8 238.5 z" stroke-linecap="round" />
</g>
</svg>